<svg width="274" height="213" viewBox="0 0 274 213" fill="none" xmlns="http://www.w3.org/2000/svg">
<path d="M169.844 1.04956L168.695 2.22274H166.397L165.248 3.39593H164.099L158.355 9.26185V10.435L157.206 11.6082V12.7814L156.057 13.9546V16.301L154.908 17.4741V24.5132L153.759 25.6864V26.8596L150.312 30.3792V36.2451L151.461 37.4183V38.5915L152.61 39.7646L151.461 40.9378V44.4574L152.61 45.6306V47.9769L154.908 50.3233H162.951L164.099 51.4965H166.397L168.695 53.8429V56.1892L169.844 57.3624V66.7479L168.695 67.9211H167.546L166.397 69.0943H161.802L160.653 70.2674H154.908L153.759 71.4406H149.163L148.014 72.6138H141.121L139.972 73.787H129.631L128.482 74.9602H121.589L120.44 73.787H112.397L111.248 72.6138H66.4399L65.291 71.4406H54.9506L53.8016 70.2674H35.4186L34.2697 71.4406H33.1208V72.6138L31.9718 73.787L35.4186 77.3065H36.5676L37.7165 78.4797H38.8654L40.0144 79.6529H41.1633L42.3123 80.8261H44.6101L45.7591 81.9993H48.0569L49.2059 83.1725H60.6952L61.8442 81.9993H65.291L66.4399 83.1725H71.0357L72.1846 84.3457H76.7803L77.9293 85.5188H80.2271L81.3761 86.692H83.674L84.8229 87.8652H87.1208L88.2697 89.0384H92.8654L94.0144 90.2116H97.4612L98.6101 91.3848H125.036L126.185 92.5579H151.461L152.61 93.7311V97.2507L151.461 98.4239V100.77L150.312 101.943V116.022L151.461 117.195V121.888L152.61 123.061V126.58L153.759 127.753V153.564L152.61 154.737L150.312 152.39H149.163L145.717 148.871H144.568L143.419 147.698V146.524H142.27L138.823 143.005H137.674L131.929 137.139H130.78L127.334 133.619H126.185L123.887 131.273H122.738L118.142 126.58H116.993L114.695 124.234H113.546L111.248 121.888H110.099L107.802 119.541H106.653L105.504 118.368H104.355L103.206 117.195H102.057L99.7591 114.848H97.4612L96.3123 113.675H94.0144L92.8654 112.502H87.1208L85.9718 113.675H82.525L74.4825 121.888V123.061L72.1846 125.407V126.58L71.0357 127.753V128.927L68.7378 131.273V132.446L67.5888 133.619V134.793L66.4399 135.966V137.139L64.142 139.485V140.659L61.8442 143.005V144.178L59.5463 146.524V147.698L58.3974 148.871V150.044L54.9506 153.564V154.737L53.8016 155.91V157.083L50.3548 160.603V161.776L48.0569 164.122V165.295L44.6101 168.815V169.988L42.3123 172.334V173.508L38.8654 177.027V178.2L33.1208 184.066V185.24L30.8229 187.586H29.674L23.9293 193.452H22.7803L20.4825 195.798H19.3335L18.1846 196.971H17.0357L15.8867 198.145H14.7378L13.5888 199.318H12.4399L11.291 200.491H10.142L8.9931 201.664H7.84417L6.69523 202.837H5.5463L3.24842 205.184H2.09949V211.05H10.142L11.291 209.876H18.1846L19.3335 208.703H28.525L29.674 209.876H38.8654L40.0144 211.05H42.3123L43.4612 209.876H46.908V208.703L48.0569 207.53H52.6527L53.8016 206.357H148.014L149.163 207.53H150.312L151.461 206.357H152.61L153.759 207.53H182.482L183.631 206.357H238.78L239.929 207.53L241.078 206.357H249.121L250.27 207.53H272.099V205.184H187.078L185.929 204.01L189.376 200.491H190.525V199.318L192.823 196.971V195.798L193.972 194.625V192.279L195.121 191.105V186.413L196.27 185.24V158.256L195.121 157.083V150.044L193.972 148.871V133.619L195.121 132.446V125.407L196.27 124.234V119.541L197.419 118.368V114.848L198.568 113.675V107.809L199.717 106.636V96.0775L200.865 94.9043V87.8652L199.717 86.692V80.8261L198.568 79.6529V76.1334L197.419 74.9602V72.6138L196.27 71.4406V70.2674L195.121 69.0943V67.9211L193.972 66.7479V65.5747L192.823 64.4015V63.2283L190.525 60.882V59.7088L189.376 58.5356V57.3624L188.227 56.1892V55.016L187.078 53.8429V50.3233L185.929 49.1501V38.5915L188.227 36.2451V33.8987L189.376 32.7255V31.5524L188.227 30.3792V29.206L187.078 28.0328H185.929L184.78 26.8596H181.334L180.185 28.0328H179.036L177.887 29.206H176.738L174.44 26.8596V25.6864L164.099 15.1278H162.951V16.301L164.099 17.4741V18.6473L165.248 19.8205H166.397L172.142 25.6864V26.8596L174.44 29.206V30.3792H175.589L177.887 32.7255H179.036V31.5524L181.334 29.206H184.78L187.078 31.5524V35.0719L181.334 40.9378H180.185L179.036 42.111H182.482L183.631 40.9378L184.78 42.111V50.3233L185.929 51.4965V55.016L187.078 56.1892V58.5356L188.227 59.7088V60.882L190.525 63.2283V64.4015L192.823 66.7479V67.9211L193.972 69.0943V70.2674L195.121 71.4406V72.6138L196.27 73.787V76.1334L197.419 77.3065V81.9993L198.568 83.1725V104.29L197.419 105.463V111.329L196.27 112.502V117.195L195.121 118.368V123.061L193.972 124.234V128.927L192.823 130.1V151.217L193.972 152.39V160.603L195.121 161.776V185.24L193.972 186.413V188.759L192.823 189.932V192.279L191.674 193.452V194.625L189.376 196.971V198.145L184.78 202.837H182.482L181.334 204.01H180.185L179.036 205.184H176.738L175.589 206.357H160.653L159.504 205.184H154.908L153.759 204.01H152.61L151.461 202.837H149.163L146.865 200.491H145.717L143.419 198.145H142.27L141.121 196.971H139.972L125.036 181.72V180.547L119.291 174.681V173.508L114.695 168.815V167.642L110.099 162.949V161.776L106.653 158.256V157.083L104.355 154.737V153.564L99.7591 148.871V147.698L92.8654 140.659H91.7165L90.5676 139.485L89.4186 140.659V141.832L88.2697 143.005V148.871L87.1208 150.044V151.217L85.9718 152.39V153.564L84.8229 154.737V155.91L82.525 158.256V159.429L73.3335 168.815H72.1846L67.5888 173.508H66.4399L62.9931 177.027H61.8442L59.5463 179.374H58.3974L56.0995 181.72H54.9506L49.2059 187.586V188.759L45.7591 192.279V202.837L46.908 204.01V206.357L44.6101 208.703H31.9718L30.8229 207.53H15.8867L14.7378 208.703H3.24842L2.09949 207.53L3.24842 206.357H4.39736L5.5463 205.184H6.69523L7.84417 204.01H8.9931L10.142 202.837H11.291L13.5888 200.491H15.8867L17.0357 199.318H18.1846L19.3335 198.145H20.4825L22.7803 195.798H23.9293L26.2271 193.452H27.3761L37.7165 182.893V181.72L41.1633 178.2V177.027L44.6101 173.508V172.334L46.908 169.988V168.815L50.3548 165.295V164.122L52.6527 161.776V160.603L54.9506 158.256V157.083L58.3974 153.564V152.39L60.6952 150.044V148.871L61.8442 147.698V146.524L64.142 144.178V143.005L65.291 141.832V140.659L67.5888 138.312V137.139L68.7378 135.966V134.793L71.0357 132.446V131.273L72.1846 130.1V128.927L74.4825 126.58V125.407L77.9293 121.888V120.714L82.525 116.022H83.674L84.8229 114.848H95.1633L96.3123 116.022H97.4612L98.6101 117.195H99.7591L100.908 118.368H102.057L103.206 119.541H104.355L106.653 121.888H107.802L110.099 124.234H111.248L113.546 126.58H114.695L116.993 128.927H118.142L122.738 133.619H123.887L127.334 137.139H128.482L131.929 140.659H133.078L137.674 145.351H138.823L144.568 151.217H145.717L151.461 157.083H152.61L158.355 162.949H159.504L162.951 166.469H164.099L167.546 169.988L168.695 168.815V167.642H167.546L164.099 164.122H162.951L158.355 159.429H157.206L156.057 158.256V153.564L154.908 152.39V127.753L153.759 126.58V120.714L152.61 119.541V114.848L151.461 113.675V105.463L152.61 104.29V99.597L153.759 98.4239V96.0775L156.057 93.7311H161.802L162.951 94.9043H168.695L169.844 96.0775V97.2507L176.738 104.29H177.887L179.036 105.463H180.185L181.334 106.636H185.929L187.078 105.463H188.227L191.674 101.943V100.77L192.823 99.597V98.4239L193.972 97.2507V93.7311L195.121 92.5579V78.4797L193.972 77.3065V76.1334L192.823 74.9602V73.787L190.525 71.4406V70.2674H189.376L187.078 67.9211H183.631L182.482 66.7479H176.738L175.589 67.9211H173.291L172.142 66.7479V60.882L170.993 59.7088V55.016L169.844 53.8429V52.6697L166.397 49.1501H157.206L153.759 45.6306V37.4183L152.61 36.2451V35.0719L151.461 33.8987V32.7255L153.759 30.3792V29.206L156.057 26.8596V19.8205L157.206 18.6473V15.1278L158.355 13.9546V12.7814L161.802 9.26185V8.08867L164.099 5.7423H165.248L166.397 4.56911H167.546L168.695 3.39593H169.844L170.993 2.22274H180.185L181.334 3.39593H184.78L185.929 4.56911H187.078L189.376 6.91548H190.525L195.121 11.6082V12.7814L196.27 13.9546V16.301L197.419 17.4741V33.8987L196.27 35.0719V37.4183L195.121 38.5915V42.111L197.419 39.7646V38.5915L198.568 37.4183L199.717 38.5915V40.9378L200.865 42.111V47.9769L199.717 49.1501V51.4965L198.568 52.6697V53.8429L197.419 55.016H196.27L195.121 56.1892H192.823V58.5356L193.972 57.3624H196.27L197.419 56.1892H198.568L199.717 55.016V53.8429L200.865 52.6697V51.4965L202.014 50.3233V39.7646L200.865 38.5915V36.2451H199.717L198.568 35.0719V28.0328L199.717 26.8596V20.9937L198.568 19.8205V15.1278L197.419 13.9546V12.7814L196.27 11.6082V10.435L192.823 6.91548V5.7423H191.674L190.525 4.56911H189.376L188.227 3.39593H187.078L185.929 2.22274H183.631L182.482 1.04956" stroke="#454545" stroke-width="3"/>
</svg>
