<svg width="50" height="50" viewBox="0 0 50 50" fill="none" xmlns="http://www.w3.org/2000/svg">
<path fill-rule="evenodd" clip-rule="evenodd" d="M8.33333 10.4167C7.18275 10.4167 6.25 11.3494 6.25 12.5C6.25 13.6506 7.18275 14.5833 8.33333 14.5833H41.6667C42.8173 14.5833 43.75 13.6506 43.75 12.5C43.75 11.3494 42.8173 10.4167 41.6667 10.4167H8.33333ZM14.5833 25C14.5833 23.8494 15.5161 22.9167 16.6667 22.9167H41.6667C42.8173 22.9167 43.75 23.8494 43.75 25C43.75 26.1506 42.8173 27.0833 41.6667 27.0833H16.6667C15.5161 27.0833 14.5833 26.1506 14.5833 25ZM27.0833 37.5C27.0833 36.3494 28.016 35.4167 29.1667 35.4167H41.6667C42.8173 35.4167 43.75 36.3494 43.75 37.5C43.75 38.6506 42.8173 39.5833 41.6667 39.5833H29.1667C28.016 39.5833 27.0833 38.6506 27.0833 37.5Z" fill="#454545" fill-opacity="0.6"/>
</svg>
